<svg xmlns="http://www.w3.org/2000/svg" version="1.1" xmlns:xlink="http://www.w3.org/1999/xlink" width="512" height="512" x="0" y="0" viewBox="0 0 24 24" style="enable-background:new 0 0 512 512" xml:space="preserve" class=""><g><path d="M11.213 2.314 7.266 6.58a1 1 0 0 0 1.468 1.357L11 5.488v10.664a1 1 0 0 0 2 0V5.555l2.275 2.392a1 1 0 0 0 1.45-1.377l-4.053-4.265c-.439-.42-1.035-.383-1.46.01z" fill="#99a1af" opacity="1" data-original="#000000"></path><path d="M3 10.994a1 1 0 0 0-1 1v7c0 1.645 1.355 3 3 3h14c1.645 0 3-1.355 3-3v-7a1 1 0 0 0-1-1 1 1 0 0 0-1 1v7c0 .572-.429 1-1 1H5c-.571 0-1-.428-1-1v-7a1 1 0 0 0-1-1z" fill="#99a1af" opacity="1" data-original="#000000"></path></g></svg>