<svg id="Layer_1" height="512" viewBox="0 0 512 512" width="512" xmlns="http://www.w3.org/2000/svg" data-name="Layer 1"><path d="m277.333 405.333h-202.667a32.036 32.036 0 0 1 -32-32h224a10.667 10.667 0 1 0 0-21.333h-224v-234.667a32.036 32.036 0 0 1 32-32h341.334a32.036 32.036 0 0 1 32 32v122.667a10.667 10.667 0 0 0 21.333 0v-122.667a53.393 53.393 0 0 0 -53.333-53.333h-341.334a53.393 53.393 0 0 0 -53.333 53.333v256a53.393 53.393 0 0 0 53.333 53.333h202.667a10.667 10.667 0 0 0 0-21.333z"/><path d="m206.4 143.632a20.267 20.267 0 0 0 -30.4 17.552v125.632a20.222 20.222 0 0 0 30.4 17.551l108.8-62.816a20.266 20.266 0 0 0 0-35.1zm-9.067 141.335v-121.935l105.6 60.968z"/><path d="m407.542 312.457a10.669 10.669 0 0 0 -15.085 0l-26.667 26.667a10.667 10.667 0 0 0 15.085 15.085l8.457-8.457v48.915a10.667 10.667 0 0 0 21.333 0v-48.915l8.457 8.457a10.667 10.667 0 1 0 15.085-15.085z"/><path d="m400 266.667a90.667 90.667 0 1 0 90.667 90.667 90.769 90.769 0 0 0 -90.667-90.667zm0 160a69.333 69.333 0 1 1 69.333-69.333 69.412 69.412 0 0 1 -69.333 69.333z"/></svg>