<svg clip-rule="evenodd" fill-rule="evenodd" stroke-linejoin="round" stroke-miterlimit="2" viewBox="0 0 4230 4230" xmlns="http://www.w3.org/2000/svg"><path d="m1122.87 1126.44h-514.423c-264.637 0-479.167 214.531-479.167 479.167v2000c0 264.636 214.53 479.167 479.167 479.167h2000c264.636 0 479.166-214.531 479.166-479.167v-514.423h514.424c264.636 0 479.166-214.53 479.166-479.167v-2000c0-264.636-214.53-479.166-479.166-479.166h-2000c-264.637 0-479.167 214.53-479.167 479.166zm-743.59 479.167c0-126.565 102.601-229.167 229.167-229.167h2000c126.565 0 229.166 102.602 229.166 229.167v2000c0 126.565-102.601 229.167-229.166 229.167-.001 0-2000 0-2000 0-126.566 0-229.167-102.602-229.167-229.167zm2708.33 1235.58h514.424c126.565 0 229.166-102.601 229.166-229.167 0-519.069 0-1480.93 0-2000 0-126.565-102.601-229.166-229.166-229.166-519.07 0-1480.93 0-2000 0-126.565 0-229.166 102.601-229.166 229.166v514.423h1235.58c264.636 0 479.166 214.531 479.166 479.167v1235.58z"/></svg>