<svg id="Capa_1" enable-background="new 0 0 512 512" height="512" viewBox="0 0 512 512" width="512" xmlns="http://www.w3.org/2000/svg"><g><path d="m512 63.562c0-17.92-14.579-32.5-32.5-32.5h-367.273c-4.143 0-7.5 3.358-7.5 7.5s3.357 7.5 7.5 7.5h367.273c9.649 0 17.5 7.851 17.5 17.5v76.219h-482v-76.219c0-9.649 7.851-17.5 17.5-17.5h49.727c4.143 0 7.5-3.358 7.5-7.5s-3.357-7.5-7.5-7.5h-49.727c-17.921 0-32.5 14.58-32.5 32.5v373.474c0 24.208 19.694 43.901 43.901 43.901h210.135c4.143 0 7.5-3.358 7.5-7.5s-3.357-7.5-7.5-7.5h-73.372v-93.719h150.667v93.719h-47.295c-4.143 0-7.5 3.358-7.5 7.5s3.357 7.5 7.5 7.5h184.062c24.207 0 43.901-19.694 43.901-43.901v-373.474zm-497 199.938h150.664v93.719h-150.664zm0-15v-93.718h150.664v93.718zm165.664-93.718h150.667v93.718h-150.667zm165.667 0h150.669v93.718h-150.669zm150.669 108.718v93.719h-150.669v-93.719zm-331.336 202.438h-121.763c-15.936 0-28.901-12.966-28.901-28.902v-64.817h150.664zm15-108.719v-93.719h150.667v93.719zm287.435 108.719h-121.768v-93.719h150.669v64.817c0 15.936-12.965 28.902-28.901 28.902z"/></g></svg>